<svg id="Layer_1" data-name="Layer 1" xmlns="http://www.w3.org/2000/svg" viewBox="0 0 512 512"><defs><style>.cls-1{fill:#141f38;}</style></defs><title>credit-card-back-glyph</title><path class="cls-1" d="M512,153.6H0a64.19,64.19,0,0,1,64-64H448A64.19,64.19,0,0,1,512,153.6ZM0,204.8H512V358.4a64.19,64.19,0,0,1-64,64H64a64.19,64.19,0,0,1-64-64Zm64,89.6a12.8,12.8,0,0,0,12.8,12.8h76.8a12.8,12.8,0,1,0,0-25.6H76.8A12.8,12.8,0,0,0,64,294.4Zm0,51.2a12.8,12.8,0,0,0,12.8,12.8H217.6a12.8,12.8,0,1,0,0-25.6H76.8A12.8,12.8,0,0,0,64,345.6Z"/></svg>